<svg width="40" height="40" fill="none" xmlns="http://www.w3.org/2000/svg"><path d="M20 40c11.046 0 20-8.954 20-20S31.046 0 20 0 0 8.954 0 20s8.954 20 20 20z" fill="#25D366"/><path fill-rule="evenodd" clip-rule="evenodd" d="M20.66 31.127h-.005c-1.99 0-3.947-.5-5.684-1.447l-6.304 1.653 1.687-6.162a11.87 11.87 0 0 1-1.587-5.946c.002-6.557 5.337-11.892 11.892-11.892a11.816 11.816 0 0 1 8.413 3.488 11.82 11.82 0 0 1 3.48 8.414c-.002 6.555-5.335 11.89-11.892 11.892zm-5.396-3.6l.36.214a9.87 9.87 0 0 0 5.031 1.378h.005c5.448 0 9.882-4.435 9.884-9.885a9.826 9.826 0 0 0-2.892-6.993 9.817 9.817 0 0 0-6.989-2.899c-5.452 0-9.886 4.434-9.888 9.884a9.858 9.858 0 0 0 1.51 5.26l.236.374-.999 3.648 3.742-.981zm10.98-5.732c.207.1.347.168.407.267.074.124.074.72-.174 1.414-.247.694-1.434 1.327-2.005 1.413-.512.076-1.16.108-1.872-.118-.432-.137-.985-.32-1.694-.626-2.786-1.203-4.668-3.903-5.024-4.413a3.724 3.724 0 0 0-.052-.074l-.003-.003c-.157-.21-1.21-1.616-1.21-3.071 0-1.369.672-2.086.981-2.417l.058-.062c.273-.298.595-.372.793-.372a12.855 12.855 0 0 1 .636.011c.173 0 .389-.002.602.51l.328.796c.256.623.538 1.31.588 1.41.074.149.124.322.025.52l-.042.085c-.074.152-.13.264-.255.411-.05.058-.101.12-.153.183-.102.125-.204.25-.293.338-.149.148-.304.309-.13.607.173.297.77 1.27 1.653 2.058.95.847 1.775 1.205 2.193 1.387a4.4 4.4 0 0 1 .196.088c.297.149.47.124.644-.075.174-.198.743-.867.941-1.165.198-.297.396-.247.669-.148.272.099 1.733.818 2.03.966.058.03.112.056.163.08z" fill="#FDFDFD"/></svg>