<svg width="40" height="40" fill="none" xmlns="http://www.w3.org/2000/svg"><path d="M0 20C0 8.954 8.954 0 20 0s20 8.954 20 20-8.954 20-20 20S0 31.046 0 20z" fill="#F68634"/><path d="M22.163 24.534l2.99 2.885c.612.59.612 1.548 0 2.138-.612.59-1.604.59-2.215 0L20 26.722l-2.937 2.835a1.594 1.594 0 0 1-1.108.443c-.4 0-.801-.148-1.107-.443a1.476 1.476 0 0 1-.001-2.138l2.99-2.885a10.235 10.235 0 0 1-3.105-1.241 1.482 1.482 0 0 1-.49-2.085c.459-.708 1.426-.921 2.159-.476a6.996 6.996 0 0 0 7.198 0c.733-.445 1.7-.232 2.16.476.461.706.24 1.64-.491 2.085a10.22 10.22 0 0 1-3.105 1.24z" fill="#fff"/><path fill-rule="evenodd" clip-rule="evenodd" d="M14.64 15.161c0 2.846 2.399 5.16 5.347 5.16 2.95 0 5.347-2.314 5.347-5.16S22.936 10 19.987 10c-2.948 0-5.346 2.315-5.346 5.161zm7.56 0c0-1.178-.992-2.136-2.213-2.136-1.22 0-2.214.958-2.214 2.136 0 1.178.994 2.137 2.214 2.137s2.214-.96 2.214-2.137z" fill="#fff"/></svg>