<svg width="40" height="40" fill="none" xmlns="http://www.w3.org/2000/svg"><path d="M20 40c11.046 0 20-8.954 20-20S31.046 0 20 0 0 8.954 0 20s8.954 20 20 20z" fill="url(#paint0_linear)"/><path d="M16.334 29.167c-.648 0-.538-.245-.762-.862l-1.905-6.27 14.667-8.702" fill="#C8DAEA"/><path d="M16.333 29.167c.5 0 .72-.229 1-.5L20 26.074l-3.327-2.006" fill="#A9C9DD"/><path d="M16.672 24.068l8.06 5.955c.92.508 1.584.245 1.813-.854l3.281-15.46c.336-1.347-.513-1.958-1.393-1.558L9.168 19.579c-1.315.528-1.308 1.261-.24 1.588l4.944 1.543 11.445-7.22c.54-.328 1.037-.152.63.21" fill="url(#paint1_linear)"/><defs><linearGradient id="paint0_linear" x1="15.002" y1="1.668" x2="5.002" y2="25" gradientUnits="userSpaceOnUse"><stop stop-color="#37AEE2"/><stop offset="1" stop-color="#1E96C8"/></linearGradient><linearGradient id="paint1_linear" x1="17.496" y1="21.229" x2="19.633" y2="28.141" gradientUnits="userSpaceOnUse"><stop stop-color="#EFF7FC"/><stop offset="1" stop-color="#fff"/></linearGradient></defs></svg>